<svg id="SvgjsSvg1001" width="288" height="288" xmlns="http://www.w3.org/2000/svg" version="1.1" xmlns:xlink="http://www.w3.org/1999/xlink" xmlns:svgjs="http://svgjs.com/svgjs"><defs id="SvgjsDefs1002"></defs><g id="SvgjsG1008"><svg xmlns="http://www.w3.org/2000/svg" viewBox="0 0 37 41" width="288" height="288"><g transform="matrix(.67183 0 0 .68269 -36.92 -191.715)" fill="#ff4985" class="color000 svgShape"><circle cx="65.484" cy="326.61" r="6.099" fill-opacity=".992" fill-rule="evenodd" stroke="#ffdfea" stroke-miterlimit="9.2" stroke-opacity=".992" stroke-width="1.307" class="colorStroke000 svgStroke"></circle><path fill="#f9f9f9" fill-opacity=".992" fill-rule="evenodd" stroke="#f196b1" stroke-linecap="round" stroke-miterlimit="9.2" stroke-opacity=".992" stroke-width="2.085" d="m 62.608367,324.01223 a 3.875421,3.875421 0 0 1 1.882501,-1.14822" class="colorfff svgShape colorStrokefff svgStroke"></path><g transform="matrix(1.1433 0 0 1.1433 -22.853 -71.166)" fill="#ff4985" class="color000 svgShape"><circle cx="77.558" cy="318.428" r="7.465" fill-opacity=".992" fill-rule="evenodd" stroke="#ffdfea" stroke-miterlimit="9.2" stroke-opacity=".992" stroke-width="1.6" class="colorStroke000 svgStroke"></circle><path fill="none" stroke="#f196b1" stroke-linecap="round" stroke-miterlimit="9.2" stroke-opacity=".992" stroke-width="2.552" d="m 74.037833,315.24879 a 4.7430592,4.7430592 0 0 1 2.303959,-1.40528" class="colorStrokefff svgStroke"></path></g><g stroke-width="4" fill="#ff4985" class="color000 svgShape"><path fill="none" stroke="#ffdfea" d="M65.484255 326.60994v0L80.937353 313.58051 65.818298 292.8927M101.72603 305.40997l-20.788677 8.17054 12.611754 18.00431" class="colorStroke000 svgStroke"></path></g><g transform="matrix(.6913 0 0 .6913 48.11 85.278)" fill="#ff4985" class="color000 svgShape"><circle cx="77.558" cy="318.428" r="7.465" fill-opacity=".992" fill-rule="evenodd" stroke="#ffdfea" stroke-miterlimit="9.2" stroke-opacity=".992" stroke-width="1.6" class="colorStroke000 svgStroke"></circle><path fill="none" stroke="#f196b1" stroke-linecap="round" stroke-miterlimit="9.2" stroke-opacity=".992" stroke-width="2.552" d="m 74.037833,315.24879 a 4.7430592,4.7430592 0 0 1 2.303959,-1.40528" class="colorStrokefff svgStroke"></path></g><g transform="matrix(1.03963 0 0 1.03963 .306 -17.466)" fill="#ff4985" class="color000 svgShape"><circle cx="77.558" cy="318.428" r="7.465" fill-opacity=".992" fill-rule="evenodd" stroke="#ffdfea" stroke-miterlimit="9.2" stroke-opacity=".992" stroke-width="1.6" class="colorStroke000 svgStroke"></circle><path fill="none" stroke="#f196b1" stroke-linecap="round" stroke-miterlimit="9.2" stroke-opacity=".992" stroke-width="2.552" d="m 74.037833,315.24879 a 4.7430592,4.7430592 0 0 1 2.303959,-1.40528" class="colorStrokefff svgStroke"></path></g><circle cx="93.549" cy="331.585" r="7.465" fill-opacity=".992" fill-rule="evenodd" stroke="#ffdfea" stroke-miterlimit="9.2" stroke-opacity=".992" stroke-width="1.6" class="colorStroke000 svgStroke"></circle><path fill="#f9f9f9" fill-opacity=".992" fill-rule="evenodd" stroke="#f196b1" stroke-linecap="round" stroke-miterlimit="9.2" stroke-opacity=".992" stroke-width="2.552" d="m 90.029364,328.4055 a 4.7430592,4.7430592 0 0 1 2.30396,-1.40528" class="colorfff svgShape colorStrokefff svgStroke"></path></g></svg></g></svg>