<svg id="visual" viewBox="0 0 900 600" width="900" height="600" xmlns="http://www.w3.org/2000/svg" xmlns:xlink="http://www.w3.org/1999/xlink" version="1.1"><path d="M0 133L60 79L120 109L180 127L240 145L300 127L360 91L420 85L480 43L540 85L600 67L660 115L720 109L780 109L840 67L900 43L900 0L840 0L780 0L720 0L660 0L600 0L540 0L480 0L420 0L360 0L300 0L240 0L180 0L120 0L60 0L0 0Z" fill="#fe4e6e"></path><path d="M0 247L60 145L120 211L180 283L240 283L300 175L360 277L420 169L480 217L540 157L600 151L660 235L720 223L780 199L840 211L900 193L900 41L840 65L780 107L720 107L660 113L600 65L540 83L480 41L420 83L360 89L300 125L240 143L180 125L120 107L60 77L0 131Z" fill="#fb4665"></path><path d="M0 295L60 181L120 271L180 343L240 337L300 271L360 325L420 259L480 253L540 265L600 211L660 319L720 325L780 301L840 247L900 289L900 191L840 209L780 197L720 221L660 233L600 149L540 155L480 215L420 167L360 275L300 173L240 281L180 281L120 209L60 143L0 245Z" fill="#f83e5b"></path><path d="M0 373L60 211L120 337L180 403L240 379L300 313L360 373L420 313L480 337L540 289L600 277L660 349L720 397L780 355L840 319L900 313L900 287L840 245L780 299L720 323L660 317L600 209L540 263L480 251L420 257L360 323L300 269L240 335L180 341L120 269L60 179L0 293Z" fill="#f53552"></path><path d="M0 427L60 265L120 367L180 445L240 415L300 337L360 397L420 367L480 373L540 313L600 325L660 403L720 439L780 385L840 385L900 331L900 311L840 317L780 353L720 395L660 347L600 275L540 287L480 335L420 311L360 371L300 311L240 377L180 401L120 335L60 209L0 371Z" fill="#f12b48"></path><path d="M0 457L60 325L120 439L180 511L240 475L300 397L360 463L420 385L480 433L540 367L600 391L660 433L720 475L780 409L840 409L900 373L900 329L840 383L780 383L720 437L660 401L600 323L540 311L480 371L420 365L360 395L300 335L240 413L180 443L120 365L60 263L0 425Z" fill="#ed213e"></path><path d="M0 487L60 367L120 499L180 553L240 499L300 439L360 499L420 421L480 487L540 415L600 433L660 493L720 487L780 469L840 457L900 433L900 371L840 407L780 407L720 473L660 431L600 389L540 365L480 431L420 383L360 461L300 395L240 473L180 509L120 437L60 323L0 455Z" fill="#e91434"></path><path d="M0 601L60 601L120 601L180 601L240 601L300 601L360 601L420 601L480 601L540 601L600 601L660 601L720 601L780 601L840 601L900 601L900 431L840 455L780 467L720 485L660 491L600 431L540 413L480 485L420 419L360 497L300 437L240 497L180 551L120 497L60 365L0 485Z" fill="#e5002a"></path></svg>